<?xml version="1.0" encoding="UTF-8" standalone="no"?>
<svg width="37px" height="24px" viewBox="0 0 37 24" version="1.1" xmlns="http://www.w3.org/2000/svg" xmlns:xlink="http://www.w3.org/1999/xlink">
    <!-- Generator: Sketch 3.6.1 (26313) - http://www.bohemiancoding.com/sketch -->
    <title>noun_55895_cc</title>
    <desc>Created with Sketch.</desc>
    <defs></defs>
    <g id="Page-1" stroke="none" stroke-width="1" fill="none" fill-rule="evenodd">
        <g id="noun_55895_cc" fill="#FFFFFF">
            <g id="Group">
                <path d="M35.6,23.6 L0.844444444,23.6 C0.444444444,23.6 0.133333333,23.2888889 0.133333333,22.8888889 L0.133333333,1.11111111 C0.133333333,0.711111111 0.444444444,0.4 0.844444444,0.4 L35.5555556,0.4 C35.9555556,0.4 36.2666667,0.711111111 36.2666667,1.11111111 L36.2666667,22.8888889 C36.3111111,23.2888889 36,23.6 35.6,23.6 L35.6,23.6 Z M1.6,22.1777778 L34.8888889,22.1777778 L34.8888889,1.82222222 L1.6,1.82222222 L1.6,22.1777778 L1.6,22.1777778 Z" id="Shape"></path>
                <path d="M11.7333333,15.3777778 C8.8,15.3777778 6.4,12.9777778 6.4,10.0444444 C6.4,7.11111111 8.8,4.71111111 11.7333333,4.71111111 C14.6666667,4.71111111 17.0666667,7.11111111 17.0666667,10.0444444 C17.0666667,12.9777778 14.7111111,15.3777778 11.7333333,15.3777778 L11.7333333,15.3777778 Z M11.7333333,6.08888889 C9.55555556,6.08888889 7.82222222,7.86666667 7.82222222,10 C7.82222222,12.1333333 9.6,13.9111111 11.7333333,13.9111111 C13.9111111,13.9111111 15.6444444,12.1333333 15.6444444,10 C15.6444444,7.86666667 13.9111111,6.08888889 11.7333333,6.08888889 L11.7333333,6.08888889 Z" id="Shape"></path>
                <path d="M5.6,23.5111111 C5.2,23.5111111 4.88888889,23.2 4.88888889,22.8 L4.88888889,13.5111111 C4.88888889,13.2888889 4.97777778,13.0666667 5.2,12.9333333 L7.2,11.4666667 C7.51111111,11.2444444 7.95555556,11.2888889 8.22222222,11.6 C8.44444444,11.9111111 8.4,12.3555556 8.08888889,12.6222222 L6.4,13.8666667 L6.4,22.7555556 C6.31111111,23.2 6,23.5111111 5.6,23.5111111 L5.6,23.5111111 Z" id="Shape"></path>
                <path d="M11.7333333,20.2666667 C11.4666667,20.2666667 11.2444444,20.1333333 11.1111111,19.9111111 L7.68888889,13.8222222 C7.51111111,13.4666667 7.6,13.0222222 7.95555556,12.8444444 C8.31111111,12.6666667 8.75555556,12.7555556 8.93333333,13.1111111 L11.6888889,18.0888889 L14.4444444,13.1111111 C14.6222222,12.7555556 15.0666667,12.6222222 15.4222222,12.8444444 C15.7777778,13.0222222 15.9111111,13.4666667 15.6888889,13.8222222 L12.2666667,19.9111111 C12.2222222,20.1333333 12,20.2666667 11.7333333,20.2666667 L11.7333333,20.2666667 Z" id="Shape"></path>
                <path d="M11.7333333,10 C11.5111111,10 11.2888889,9.86666667 11.1555556,9.68888889 L10.3111111,8.44444444 L8.13333333,8.44444444 C7.73333333,8.44444444 7.42222222,8.13333333 7.42222222,7.73333333 C7.42222222,7.33333333 7.73333333,7.02222222 8.13333333,7.02222222 L10.7111111,7.02222222 C10.9333333,7.02222222 11.1555556,7.15555556 11.2888889,7.33333333 L12.0444444,8.48888889 L15.6888889,7.82222222 C16.0888889,7.73333333 16.4444444,8 16.5333333,8.4 C16.6222222,8.8 16.3555556,9.15555556 15.9555556,9.24444444 L11.8222222,10 C11.8222222,10 11.7777778,10 11.7333333,10 L11.7333333,10 Z" id="Shape"></path>
                <path d="M17.7333333,23.5111111 C17.3333333,23.5111111 17.0222222,23.2 17.0222222,22.8 L17.0222222,13.9111111 L15.5111111,12.6666667 C15.2,12.4 15.1555556,11.9555556 15.4222222,11.6444444 C15.6888889,11.3333333 16.1333333,11.2888889 16.4444444,11.5555556 L18.2222222,13.0222222 C18.4,13.1555556 18.4888889,13.3777778 18.4888889,13.5555556 L18.4888889,22.8 C18.4444444,23.1555556 18.1333333,23.5111111 17.7333333,23.5111111 L17.7333333,23.5111111 Z" id="Shape"></path>
                <path d="M28.9777778,8.4 L22.5333333,8.4 C22.1333333,8.4 21.8222222,8.08888889 21.8222222,7.68888889 C21.8222222,7.28888889 22.1333333,6.97777778 22.5333333,6.97777778 L28.9777778,6.97777778 C29.3777778,6.97777778 29.6888889,7.28888889 29.6888889,7.68888889 C29.6888889,8.08888889 29.3777778,8.4 28.9777778,8.4 L28.9777778,8.4 Z" id="Shape"></path>
                <path d="M28.9777778,13.9555556 L22.5333333,13.9555556 C22.1333333,13.9555556 21.8222222,13.6444444 21.8222222,13.2444444 C21.8222222,12.8444444 22.1333333,12.5333333 22.5333333,12.5333333 L28.9777778,12.5333333 C29.3777778,12.5333333 29.6888889,12.8444444 29.6888889,13.2444444 C29.6888889,13.6444444 29.3777778,13.9555556 28.9777778,13.9555556 L28.9777778,13.9555556 Z" id="Shape"></path>
                <path d="M26.3555556,11.1555556 L22.5333333,11.1555556 C22.1333333,11.1555556 21.8222222,10.8444444 21.8222222,10.4444444 C21.8222222,10.0444444 22.1333333,9.73333333 22.5333333,9.73333333 L26.3555556,9.73333333 C26.7555556,9.73333333 27.0666667,10.0444444 27.0666667,10.4444444 C27.0666667,10.8444444 26.7555556,11.1555556 26.3555556,11.1555556 L26.3555556,11.1555556 Z" id="Shape"></path>
            </g>
        </g>
    </g>
</svg>