<?xml version="1.0" encoding="UTF-8" standalone="no"?>
<svg width="96px" height="97px" viewBox="0 0 96 97" version="1.1" xmlns="http://www.w3.org/2000/svg" xmlns:xlink="http://www.w3.org/1999/xlink">
    <!-- Generator: Sketch 3.6.1 (26313) - http://www.bohemiancoding.com/sketch -->
    <title>noun_140099_cc</title>
    <desc>Created with Sketch.</desc>
    <defs></defs>
    <g id="Page-1" stroke="none" stroke-width="1" fill="none" fill-rule="evenodd">
        <g id="noun_140099_cc" fill="#FFFFFF">
            <g id="Group">
                <g id="Shape">
                    <path d="M50.315,7.25 C29.486,7.25 12.541,25.873 12.541,48.763 C12.541,71.652 29.486,90.275 50.315,90.275 C71.142,90.275 88.087,71.652 88.087,48.763 C88.088,25.872 71.143,7.25 50.315,7.25 L50.315,7.25 Z M50.315,87.231 C31.164,87.231 15.584,69.974 15.584,48.762 C15.584,27.55 31.164,10.292 50.315,10.292 C69.464,10.292 85.044,27.55 85.044,48.762 C85.045,69.975 69.465,87.231 50.315,87.231 L50.315,87.231 Z"></path>
                    <path d="M47.617,0.978 C21.442,0.978 0.148,22.404 0.148,48.739 C0.148,75.073 21.442,96.5 47.617,96.5 C73.791,96.5 95.087,75.073 95.087,48.739 C95.087,22.403 73.791,0.978 47.617,0.978 L47.617,0.978 Z M20.255,83.932 C19.923,83.67 19.588,83.409 19.263,83.138 L19.515,83.138 C19.762,83.403 20.004,83.672 20.255,83.932 L20.255,83.932 Z M15.98,80.095 C15.823,79.936 15.672,79.769 15.519,79.608 L16.559,79.608 C16.683,79.772 16.808,79.933 16.934,80.095 L15.98,80.095 L15.98,80.095 Z M13.008,76.564 C12.966,76.564 12.927,76.574 12.886,76.576 C12.549,76.15 12.213,75.722 11.89,75.283 L13.636,75.283 C13.896,75.718 14.169,76.14 14.44,76.564 L13.008,76.564 L13.008,76.564 Z M7.588,37.858 L4.526,37.858 C4.631,37.436 4.749,37.018 4.867,36.601 L7.859,36.601 C7.762,37.017 7.676,37.438 7.588,37.858 L7.588,37.858 Z M3.483,53.803 L6.696,53.803 C6.736,54.225 6.788,54.643 6.838,55.061 L3.643,55.061 C3.583,54.643 3.53,54.225 3.483,53.803 L3.483,53.803 Z M6.509,46.459 L3.247,46.459 C3.268,46.037 3.309,45.621 3.342,45.202 L6.587,45.202 C6.56,45.621 6.527,46.038 6.509,46.459 L6.509,46.459 Z M6.474,49.503 C6.479,49.923 6.487,50.342 6.503,50.76 L3.241,50.76 C3.222,50.343 3.216,49.923 3.209,49.503 L6.474,49.503 L6.474,49.503 Z M7.278,58.104 C7.353,58.527 7.441,58.944 7.526,59.362 L4.467,59.362 C4.366,58.945 4.268,58.526 4.178,58.104 L7.278,58.104 L7.278,58.104 Z M8.175,62.405 C8.195,62.405 8.212,62.4 8.233,62.398 C8.345,62.823 8.465,63.243 8.588,63.663 L5.743,63.663 C5.596,63.245 5.454,62.826 5.319,62.405 L8.175,62.405 L8.175,62.405 Z M6.873,42.159 L3.675,42.159 C3.737,41.736 3.813,41.319 3.887,40.901 L7.043,40.901 C6.981,41.318 6.925,41.738 6.873,42.159 L6.873,42.159 Z M9.842,72.24 C9.591,71.834 9.352,71.42 9.114,71.006 L11.35,71.006 C11.355,71.006 11.36,71.004 11.366,71.004 C11.562,71.42 11.766,71.831 11.972,72.24 L9.842,72.24 L9.842,72.24 Z M7.512,67.963 C7.315,67.549 7.13,67.127 6.946,66.706 L9.5,66.706 C9.527,66.706 9.552,66.698 9.58,66.697 C9.734,67.122 9.894,67.545 10.059,67.963 L7.512,67.963 L7.512,67.963 Z M8.674,33.572 C8.628,33.567 8.583,33.558 8.536,33.558 L5.83,33.558 C5.982,33.134 6.149,32.718 6.314,32.3 L9.063,32.3 C8.925,32.719 8.802,33.146 8.674,33.572 L8.674,33.572 Z M10.18,29.256 L7.635,29.256 C7.84,28.832 8.058,28.415 8.276,27.999 L10.693,27.999 C10.513,28.413 10.348,28.836 10.18,29.256 L10.18,29.256 Z M12.141,24.956 L10.022,24.956 C10.286,24.534 10.549,24.111 10.828,23.698 L12.806,23.698 C12.577,24.113 12.357,24.533 12.141,24.956 L12.141,24.956 Z M14.631,20.655 L13.077,20.655 C13.353,20.312 13.638,19.976 13.923,19.641 L15.314,19.641 C15.083,19.976 14.854,20.312 14.631,20.655 L14.631,20.655 Z M17.57,16.615 C17.516,16.609 17.463,16.598 17.407,16.598 L16.774,16.598 C17.945,15.459 19.177,14.385 20.465,13.38 C19.456,14.406 18.489,15.485 17.57,16.615 L17.57,16.615 Z M49.163,93.419 C49.027,93.379 48.887,93.351 48.738,93.351 C27.102,93.351 9.5,73.348 9.5,48.763 C9.5,24.177 27.103,4.174 48.738,4.174 C48.936,4.174 49.124,4.133 49.297,4.065 C73.018,4.959 92.044,24.65 92.044,48.74 C92.044,72.875 72.945,92.594 49.163,93.419 L49.163,93.419 Z"></path>
                    <path d="M70.43,33.363 C69.543,30.728 67.503,28.137 65.106,26.602 C62.269,24.785 59.019,24.632 55.933,24.632 L54.207,24.637 L53.796,24.636 C53.796,24.636 42.775,24.606 37.373,24.606 C36.966,24.606 36.576,24.77 36.29,25.06 C36.004,25.35 35.847,25.742 35.852,26.149 L35.946,32.95 C35.958,33.782 36.635,34.45 37.467,34.45 L40.243,34.45 L40.243,46.114 L36.662,46.114 C35.822,46.114 35.141,46.795 35.141,47.635 L35.141,53.897 C35.141,54.738 35.822,55.418 36.662,55.418 L39.908,55.418 L39.908,55.823 L36.496,55.823 C35.656,55.823 34.975,56.505 34.975,57.344 L34.975,63.153 C34.975,63.995 35.656,64.674 36.496,64.674 L40.009,64.674 L40.009,67.074 L36.496,67.074 C35.656,67.074 34.975,67.757 34.975,68.595 L34.975,73.759 C34.975,74.598 35.656,75.28 36.496,75.28 L56.949,75.28 C57.79,75.28 58.47,74.597 58.47,73.759 L58.47,68.595 C58.47,67.756 57.789,67.074 56.949,67.074 L53.501,67.074 L53.501,64.843 L63.319,64.843 C64.161,64.843 64.84,64.161 64.84,63.322 L64.84,57.195 C64.84,56.354 64.16,55.674 63.319,55.674 L53.905,55.674 L53.905,55.335 C59.895,55.284 64.493,53.611 67.574,50.358 C71.753,45.948 71.497,40.293 71.487,40.111 C71.464,38.692 71.295,35.928 70.43,33.363 L70.43,33.363 Z M65.366,48.267 C62.834,50.939 58.885,52.294 53.627,52.294 C53.239,52.294 52.845,52.286 52.439,52.272 C52.028,52.262 51.626,52.41 51.329,52.696 C51.031,52.983 50.863,53.379 50.863,53.793 L50.863,57.197 C50.863,58.037 51.543,58.718 52.384,58.718 L61.798,58.718 L61.798,61.802 L51.98,61.802 C51.138,61.802 50.459,62.483 50.459,63.323 L50.459,68.597 C50.459,69.439 51.139,70.118 51.98,70.118 L55.428,70.118 L55.428,72.239 L38.018,72.239 L38.018,70.118 L41.532,70.118 C42.373,70.118 43.053,69.438 43.053,68.597 L43.053,63.154 C43.053,62.314 42.372,61.633 41.532,61.633 L38.018,61.633 L38.018,58.867 L41.43,58.867 C42.27,58.867 42.951,58.186 42.951,57.346 L42.951,53.898 C42.951,53.057 42.27,52.377 41.43,52.377 L38.184,52.377 L38.184,49.158 L41.765,49.158 C42.605,49.158 43.286,48.477 43.286,47.637 L43.286,32.929 C43.286,32.089 42.605,31.408 41.765,31.408 L38.967,31.408 L38.915,27.651 C44.623,27.656 53.784,27.68 53.781,27.68 L54.207,27.681 L55.933,27.676 C58.677,27.676 61.318,27.79 63.464,29.164 C65.278,30.327 66.881,32.355 67.546,34.335 C68.082,35.924 68.409,38.049 68.447,40.221 C68.449,40.265 68.654,44.796 65.366,48.267 L65.366,48.267 Z"></path>
                    <path d="M51.771,31.415 C50.974,31.471 50.356,32.134 50.356,32.933 L50.356,47.368 C50.356,48.153 50.954,48.809 51.735,48.883 C51.773,48.886 52.116,48.918 52.655,48.918 L52.655,48.918 C54.538,48.918 58.048,48.56 60.382,46.17 C61.854,44.664 62.576,42.648 62.531,40.177 C62.564,39.568 62.614,36.499 60.441,34.123 C58.557,32.061 55.631,31.144 51.771,31.415 L51.771,31.415 Z M59.492,40.006 C59.487,40.064 59.484,40.121 59.487,40.178 C59.525,41.854 59.106,43.117 58.203,44.042 C56.877,45.401 54.742,45.763 53.398,45.848 L53.398,34.416 C55.551,34.472 57.157,35.056 58.174,36.153 C59.646,37.74 59.492,39.993 59.492,40.006 L59.492,40.006 Z"></path>
                </g>
            </g>
        </g>
    </g>
</svg>